<?xml version="1.0" encoding="UTF-8"?>
<svg id="_レイヤー_1" data-name="レイヤー 1" xmlns="http://www.w3.org/2000/svg" viewBox="0 0 500 120">
  <defs>
    <style>
      .cls-1 {
        fill: #a57e1b;
      }

      .cls-1, .cls-2 {
        stroke-width: 0px;
      }

      .cls-2 {
        fill: #3e3a39;
      }
    </style>
  </defs>
  <g>
    <g>
      <path class="cls-1" d="M47.71,23.36v13.05c2.51,2.82,4.53,7.23,4.53,11.88,0,9.25-8.33,15.99-26.89,18.25l-1.53-3.31c17.09-2.27,23.58-8.45,23.58-14.88,0-.92-.06-1.9-.18-2.82-1.78,3.74-5.76,7.17-12.37,7.17-8.51,0-14.45-4.59-14.45-10.9s6.31-11.02,14.45-11.02c3,0,5.64.74,7.78,1.96v-9.37H12.18c-2.51,0-3.55-.98-3.55-2.82,0-2.02,1.35-3.31,3.8-3.31,1.9,0,3.12.92,3.49,2.7h26.7v-3.61c-1.1-.31-2.02-1.47-2.02-2.76s1.1-2.82,3.74-2.82c2.45,0,3.37,1.35,3.37,2.76v6.43h17.95v3.43h-17.95ZM34.6,34.08c-5.45,0-9.19,3.43-9.19,7.53,0,4.47,3.86,7.47,9.19,7.47,6.31,0,9.06-3.98,9.06-7.84s-3.43-7.17-9.06-7.17Z"/>
      <path class="cls-1" d="M124.89,21.96c-17.76,5.82-33.81,15.68-33.81,26.46,0,5.57,4.72,11.15,15.43,11.15,5.82,0,11.88-1.78,15.74-3.92l1.35,4.78c-3.55,1.41-10.41,2.76-17.09,2.76-13.96,0-21.13-6.12-21.13-14.45,0-10.54,13.54-20.46,29.15-26.89l-37.24,1.04c-2.33.06-3.12-1.35-3.12-2.88,0-3.12,2.76-3.31,3.8-3.31,1.96,0,2.94.98,3.43,2.63l42.94-1.1c1.23-.06,1.9.86,1.9,1.9,0,.98-.31,1.53-1.35,1.84Z"/>
      <path class="cls-1" d="M177.57,36.47c.73,2.21,1.78,4.59,1.78,6.92,0,3.74-3.12,5.27-7.47,5.27h-3.61v-3.37h2.82c1.59,0,3.06-.43,3.06-2.33,0-2.08-1.16-4.47-1.78-6.49h-30.69c-2.51,0-3.49-1.1-3.49-2.88,0-2.08,1.29-3.31,3.86-3.31,1.9,0,3.12.92,3.55,2.7h25.66c-.98-3.12-1.84-5.82-2.51-8.21h-27.07c-2.51,0-3.49-.92-3.49-2.76,0-2.08,1.29-3.31,3.86-3.31,1.9,0,3.12.92,3.55,2.69h22.23c-.8-2.94-1.22-5.08-1.22-6.43,0-3.12,2.33-3.86,3.92-3.86,2.08,0,3.18,1.53,3.18,2.88,0,1.1-.49,1.96-1.59,2.39.06,1.29.37,2.88.92,5.02h18.68v3.37h-17.76c.67,2.27,1.47,4.9,2.51,8.21h15.25v3.49h-14.15ZM164.83,62.99c-14.27,0-23.27-5.08-23.27-13.23,0-3,1.84-6.49,4.72-9.06l3.61,1.9c-2.21,2.45-3.12,4.53-3.12,7.1,0,5.27,5.94,9.74,18.86,9.74,4.23,0,9.49-.98,14.7-2.82l1.78,4.23c-4.59,1.53-11.33,2.14-17.27,2.14Z"/>
      <path class="cls-1" d="M219.83,27.22c-2.76,13.66-9.86,25.17-14.15,30.69l-3.86-2.7c3.92-5.08,10.72-16.11,13.11-27.99h-10.78c-2.39,0-3.43-1.1-3.43-2.88,0-2.08,1.29-3.31,3.74-3.31,1.84,0,3.06.92,3.37,2.69h7.66c.18-1.59.31-3.18.31-4.72-1.53-.67-1.96-1.96-1.96-3,0-2.02,2.2-2.94,3.61-2.94,2.08,0,3.49,1.35,3.49,3.19,0,2.57-.18,5.02-.55,7.47h21.8v3.49h-22.36ZM242.07,57.36c-1.35,4.29-5.94,7.17-11.82,7.17-7.04,0-12.62-3.8-12.62-9.86s5.63-9.92,12.62-9.92c2.82,0,5.39.67,7.35,1.9v-13.47h4.84v18.62c2.39,4.23,8.88,6.55,15.31,6.55v3.55c-5.39,0-11.51-1.35-15.68-4.53ZM230.18,48.29c-4.23,0-7.35,2.88-7.35,6.37s3.12,6.43,7.35,6.43,7.35-2.82,7.35-6.43c0-3.98-3.25-6.37-7.35-6.37ZM251.81,45.11l-3.61-23.64c-1.41-.12-2.45-1.53-2.45-3.19,0-2.2,2.02-3,3.61-3s2.57,1.1,2.76,2.51l4.04,26.7-4.35.61Z"/>
    </g>
    <g>
      <path class="cls-1" d="M331.74,56.75c0,4.2,1.7,6.3,5.11,6.3,3.19,0,7.12-1.88,11.81-5.64,5.13-4.07,8.65-8.36,10.55-12.88,2.17-5.09,3.25-9.42,3.25-13.01s-.72-6.28-2.16-8.1c-1.44-1.81-3.42-2.72-5.94-2.72-.58,0-1.17.04-1.79.13-1.06.27-1.85.4-2.36.4s-.76-.13-.76-.4c0-.4.41-.77,1.23-1.13.82-.35,1.44-.53,1.86-.53h1.96c2.52,0,4.83,1,6.94,2.99,2.1,1.99,3.46,4.91,4.08,8.76.13.93.2,1.88.2,2.85,0,3.27-.78,6.99-2.32,11.15-2.17,5.49-5.9,10.16-11.18,14-5.29,3.85-10.14,5.78-14.57,5.78s-7.43-2.12-8.5-6.37c-.31-1.11-.46-2.61-.46-4.51s.46-4.38,1.39-7.43c-2.39,3.98-5.49,8.3-9.29,12.94-2.08,2.48-4.2,4.54-6.37,6.17-2.3,1.73-4.25,2.59-5.84,2.59-3.14,0-4.71-1.9-4.71-5.71,0-4.47,2.9-13.58,8.69-27.35,3.63-8.76,5.44-15.33,5.44-19.71,0-2.83-.85-4.79-2.56-5.88-1.7-1.08-3.73-1.63-6.07-1.63-1.02,0-2.08.11-3.19.33-7.83,1.59-14.78,5.82-20.84,12.68-3.01,3.45-5.09,6.76-6.24,9.92-1.15,3.16-1.8,5.51-1.96,7.04-.16,1.53-.23,2.79-.23,3.78s.19,2.14.56,3.42c.38,1.28,1.03,2.48,1.96,3.58,1.73,1.99,4.14,2.99,7.24,2.99,5.13,0,9.2-2.68,12.21-8.03,1.55-2.74,2.32-5.22,2.32-7.43,0-3.63-1.62-5.44-4.85-5.44-.53,0-1.19.07-1.99.2-.8.13-1.17.04-1.13-.27.04-.31.64-.64,1.79-1,1.15-.35,2.3-.53,3.45-.53,2.3,0,3.98.89,5.04,2.66.66,1.11,1,2.41,1,3.92s-.42,3.25-1.26,5.24c-2.26,5.18-6.31,8.98-12.15,11.42-1.55.66-2.99,1-4.31,1-4.34,0-7.79-1.55-10.35-4.65-1.82-2.12-2.96-4.87-3.45-8.23-.09-.66-.13-1.35-.13-2.06,0-2.83.72-5.9,2.16-9.19,1.44-3.3,3.39-6.36,5.87-9.19,2.48-2.83,5.18-5.2,8.1-7.1,2.92-1.9,6-3.5,9.23-4.78,3.36-1.28,6.48-1.92,9.36-1.92s5.49.44,7.83,1.33c4.25,1.86,6.37,5.42,6.37,10.69,0,4.34-1.48,9.87-4.45,16.59-2.04,4.56-3.98,9.45-5.84,14.67-2.66,7.43-3.98,12.28-3.98,14.54,0,1.59.55,2.39,1.66,2.39.57,0,1.26-.27,2.06-.8,2.39-1.42,5-4.09,7.83-8.03,2.83-3.94,5.77-8.52,8.83-13.74,3.05-5.22,5.22-8.72,6.5-10.49,1.28-1.77,2.39-2.66,3.32-2.66.22,0,.44.04.66.13.57.31.86.91.86,1.79s-.12,1.68-.36,2.39c-.24.71-1.38,3.53-3.42,8.46-2.04,4.93-3.16,8.19-3.38,9.76-.22,1.57-.33,2.75-.33,3.55Z"/>
      <path class="cls-1" d="M369.57,58.41c.84,0,1.73-.42,2.66-1.26,1.64-1.64,3.72-4.98,6.24-10.02.31-.66.62-.86.93-.6.09.09.13.23.13.43s-.18.69-.53,1.46c-.35.77-.67,1.47-.96,2.09-.29.62-.84,1.63-1.66,3.02-.82,1.39-1.56,2.47-2.22,3.22-1.82,2.08-3.53,3.12-5.14,3.12s-2.78-.49-3.48-1.46c-.71-.97-1.06-2.06-1.06-3.25s.29-2.5.86-3.92l4.25-10.82c.09-.26.13-.62.13-1.06s-.27-1.02-.8-1.73l3.65-.07c1.02,0,1.62.19,1.79.56.18.38.04.96-.4,1.76l-5.31,12.41c-.75,1.64-1.13,3.03-1.13,4.18,0,1.28.69,1.92,2.06,1.92ZM376.08,34.05c-.62.53-1.31.8-2.06.8s-1.35-.27-1.79-.8c-.44-.53-.62-1.17-.53-1.92.13-.75.51-1.39,1.13-1.92.62-.53,1.3-.8,2.06-.8s1.36.27,1.83.8c.46.53.63,1.17.5,1.92-.13.75-.51,1.39-1.13,1.92Z"/>
      <path class="cls-1" d="M384.51,45.2c0-.93.38-1.39,1.13-1.39,2.88,0,7.74.09,14.6.27.75.04,1.22.33,1.39.86-.09.53-.46.84-1.13.93-3.45,0-8.43.38-14.93,1.13-.27,0-.51-.21-.73-.63-.22-.42-.33-.81-.33-1.16Z"/>
      <path class="cls-1" d="M468.27,19.38c-8.94-4.42-16.13-6.64-21.57-6.64s-10,1.55-13.67,4.65c-3.5,2.96-5.24,6.15-5.24,9.56,0,1.77.64,3.05,1.92,3.85,1.73.97,3.36,1.46,4.91,1.46.57,0,1.15-.07,1.73-.2,2.04-.49,3.76-1.3,5.18-2.46,1.42-1.15,2.12-2.08,2.12-2.79s.21-1.19.63-1.46c.42-.27.63-.18.63.27,0,.26-.07.58-.2.93-.93,3.14-3.1,5.29-6.5,6.44-1.46.49-2.96.73-4.51.73s-3.08-.46-4.58-1.39c-2.83-1.59-4.25-4.03-4.25-7.3,0-3.94,1.81-7.52,5.44-10.75,3.63-3.23,8.05-4.85,13.28-4.85,2.57,0,5.15.38,7.77,1.13,6.55,1.77,12.48,4.34,17.79,7.7,1.37-1.5,2.79-2.26,4.25-2.26,1.64,0,2.48.55,2.52,1.66.04.49-.11.71-.46.66-.22-.04-.46-.22-.73-.53-.36-.13-.69-.2-1-.2-.97,0-1.97.49-2.99,1.46,3.27,1.64,7.12,3.03,11.55,4.18,1.73.4,3.1.6,4.12.6s1.79-.02,2.32-.07c1.95-.22,3.21-.95,3.78-2.19.31-.66.59-1.07.83-1.23.24-.15.39-.08.43.23v.53c0,1.81-.93,3.19-2.79,4.12-1.15.58-2.24.86-3.25.86s-2.12-.1-3.32-.3c-1.19-.2-2.74-.61-4.65-1.23-1.9-.62-3.45-1.19-4.65-1.73-1.19-.53-2.37-1.08-3.52-1.66l-1.86-.93c-2.3,2.61-4.76,7.1-7.37,13.47-.84,2.12-1.33,3.34-1.46,3.65,2.57.35,4.93.53,7.1.53s3.88-.03,5.14-.1c1.26-.07,1.91.08,1.96.43.04.97-3.25,1.46-9.89,1.46-2.12,0-3.83-.09-5.11-.27-2.74,7.52-5.49,13.1-8.23,16.73-1.15,1.5-2.59,3.09-4.31,4.75-1.73,1.66-3.56,3-5.51,4.02-4.38,2.39-9.27,3.58-14.67,3.58s-9.98-1.2-13.74-3.58c-5.71-3.54-8.56-8.65-8.56-15.33,0-2.26.38-4.67,1.13-7.24.53-1.68,1.51-3.16,2.95-4.45,1.44-1.28,2.64-2.07,3.62-2.36.97-.29,1.43-.34,1.36-.17s-.83.77-2.29,1.79c-2.88,2.08-4.58,4.65-5.11,7.7-.22,1.11-.33,2.39-.33,3.85s.33,3.05,1,4.78c1.81,4.69,5.58,8.14,11.28,10.35,2.7,1.02,5.6,1.53,8.7,1.53s6.17-.62,9.23-1.86c3.05-1.24,5.88-3.1,8.5-5.58,5.09-4.82,9.29-11.06,12.61-18.72l-4.25-.07c-5.18,0-8.58,1.19-10.22,3.58-.4.49-.72.61-.96.37-.24-.24-.28-.56-.1-.96.97-2.12,2.35-3.65,4.12-4.58,1.77-.93,3.53-1.39,5.28-1.39s4.1.2,7.07.6c1.37-3.36,3.11-6.86,5.21-10.49,2.1-3.63,3.57-5.93,4.41-6.9Z"/>
      <path class="cls-1" d="M477.63,58.41c.84,0,1.73-.42,2.66-1.26,1.64-1.64,3.72-4.98,6.24-10.02.31-.66.62-.86.93-.6.09.09.13.23.13.43s-.18.69-.53,1.46c-.35.77-.67,1.47-.96,2.09-.29.62-.84,1.63-1.66,3.02-.82,1.39-1.56,2.47-2.22,3.22-1.82,2.08-3.53,3.12-5.14,3.12s-2.78-.49-3.48-1.46c-.71-.97-1.06-2.06-1.06-3.25s.29-2.5.86-3.92l4.25-10.82c.09-.26.13-.62.13-1.06s-.27-1.02-.8-1.73l3.65-.07c1.02,0,1.62.19,1.79.56.18.38.04.96-.4,1.76l-5.31,12.41c-.75,1.64-1.13,3.03-1.13,4.18,0,1.28.69,1.92,2.06,1.92ZM484.13,34.05c-.62.53-1.31.8-2.06.8s-1.35-.27-1.79-.8c-.44-.53-.62-1.17-.53-1.92.13-.75.51-1.39,1.13-1.92.62-.53,1.3-.8,2.06-.8s1.36.27,1.83.8c.46.53.63,1.17.5,1.92-.13.75-.51,1.39-1.13,1.92Z"/>
    </g>
  </g>
  <g>
    <path class="cls-2" d="M152.1,96.66h.43v3.58h-.46c-.1-.99-.46-1.76-1.07-2.32-.61-.56-1.38-.83-2.31-.83-.82,0-1.49.21-1.99.62-.5.42-.75.97-.75,1.67,0,.64.21,1.23.62,1.76s1.32,1.21,2.71,2.04c1.61.96,2.7,1.8,3.25,2.52.56.72.83,1.54.83,2.47,0,1.2-.42,2.22-1.27,3.07-.85.85-1.87,1.28-3.07,1.28-.69,0-1.58-.19-2.65-.57-.44-.16-.72-.23-.84-.23-.25,0-.45.2-.58.59h-.46v-4.13h.46c0,1.14.38,2.05,1.11,2.73.73.69,1.59,1.03,2.57,1.03.93,0,1.67-.25,2.23-.74.56-.5.84-1.16.84-1.98,0-.62-.23-1.21-.69-1.77s-1.42-1.29-2.88-2.18c-1.19-.73-1.98-1.31-2.38-1.74s-.69-.89-.88-1.4c-.19-.51-.29-1.07-.29-1.67,0-1.17.38-2.12,1.15-2.85.77-.73,1.77-1.09,3-1.09.68,0,1.41.13,2.21.4.37.12.63.18.78.18.12,0,.2-.03.25-.08.04-.05.09-.17.14-.35Z"/>
    <path class="cls-2" d="M169.83,108.94v-9.19c0-.89-.12-1.52-.36-1.87-.24-.35-.66-.54-1.27-.57v-.44h5.39v.44c-.65,0-1.1.18-1.35.54-.25.36-.38.99-.38,1.9v9.52c0,.89.12,1.52.37,1.88.25.36.7.54,1.36.54v.44h-3.76v-2.13c-1.43,1.67-3.13,2.51-5.09,2.51-1.61,0-2.88-.48-3.81-1.44-.92-.96-1.39-2.23-1.39-3.81v-7.51c0-.91-.12-1.54-.36-1.9-.24-.36-.7-.53-1.37-.53v-.44h5.52v.44c-.69,0-1.15.17-1.39.52-.24.35-.36.98-.36,1.89v7.73c0,1.25.34,2.23,1.03,2.95s1.64,1.07,2.86,1.07c1.81,0,3.27-.85,4.36-2.54Z"/>
    <path class="cls-2" d="M188.06,97.62h-2.32v11.74c0,.92.11,1.54.34,1.86s.66.48,1.31.48v.44h-5.4v-.44c.67,0,1.13-.18,1.37-.55.24-.37.36-.99.36-1.87v-11.66h-2.21c-1.06,0-1.83.17-2.31.51-.48.34-.75.9-.81,1.68h-.46v-3.5h.46c.41.38,1.17.57,2.29.57h8c1.15,0,1.96-.19,2.42-.57h.48v3.5h-.3c-.19-.84-.53-1.42-1.02-1.72-.49-.31-1.23-.46-2.21-.46Z"/>
    <path class="cls-2" d="M205.52,102.66h.46v3.71h-.46c-.17-.65-.36-1.06-.6-1.22-.23-.17-.75-.25-1.54-.25h-3.79v5.47c0,.38.08.65.25.81.17.16.46.23.87.23h2.67c.95,0,1.61-.05,1.98-.16.36-.1.67-.3.92-.58.25-.28.52-.74.81-1.37h.46l-.7,2.85h-11v-.44c.69,0,1.15-.18,1.38-.53.23-.35.35-.98.35-1.87v-9.55c0-.93-.12-1.57-.36-1.92-.24-.35-.7-.52-1.37-.52v-.44h11v2.55h-.29c-.16-.73-.38-1.21-.67-1.45-.29-.24-.92-.36-1.89-.36h-4.4v6.53h4.27c.58,0,.98-.1,1.19-.31.21-.21.37-.6.46-1.18Z"/>
    <path class="cls-2" d="M212.23,112.15v-.44c.67,0,1.12-.18,1.37-.54.24-.36.36-.99.36-1.88v-9.52c0-.92-.12-1.56-.36-1.91s-.7-.53-1.37-.53v-.44h5.47v.44c-.64,0-1.09.18-1.33.55s-.37.99-.37,1.89v4.61l4.99-4.9c.53-.53.79-.96.79-1.28,0-.44-.32-.73-.97-.86v-.44h5.77v.44h-.75c-.46,0-.99.15-1.58.46-.59.31-1.14.71-1.63,1.22l-4.75,4.69,6.31,6.39c.62.65,1.11,1.07,1.44,1.26s.81.31,1.42.35v.44h-3.63l-7.4-7.48v4.62c0,.9.12,1.52.36,1.88.24.36.69.54,1.35.54v.44h-5.47Z"/>
    <path class="cls-2" d="M236.46,96.88v.44c-.65,0-1.1.18-1.35.54-.25.36-.38.99-.38,1.9v9.52c0,.91.13,1.54.38,1.9.25.35.7.53,1.35.53v.44h-5.49v-.44c.67,0,1.12-.17,1.37-.52.24-.35.36-.98.36-1.9v-9.52c0-.94-.12-1.58-.36-1.92-.24-.34-.7-.52-1.37-.52v-.44h5.49Z"/>
    <path class="cls-2" d="M252,97.32v-.44h4.61v.44c-.74,0-1.25.17-1.54.52-.29.35-.43.98-.43,1.89v12.42h-.47l-10.82-13.28v10.72c0,.75.15,1.3.46,1.62.31.33.82.49,1.54.49v.44h-4.63v-.44c.74,0,1.24-.19,1.5-.58.26-.39.39-1.07.39-2.04v-8.94c0-.96-.18-1.66-.53-2.08-.35-.42-.93-.67-1.74-.75v-.44h3.92l9.59,11.88v-8.93c0-.94-.13-1.59-.4-1.96-.27-.37-.75-.55-1.46-.55Z"/>
    <path class="cls-2" d="M270.17,112.15v-.44c.88,0,1.31-.3,1.31-.91,0-.17-.04-.37-.12-.59l-1.42-4.24h-4.9l-1.04,3.07c-.26.77-.39,1.33-.39,1.68,0,.64.4.97,1.21.99v.44h-3.94v-.44c.57-.08,1-.27,1.32-.56.31-.3.63-.91.95-1.84l4.22-12.59h1.57l4.43,13.15c.26.77.53,1.27.81,1.5.28.23.74.34,1.36.34v.44h-5.38ZM265.33,105.03h4.3l-2.16-6.47-2.14,6.47Z"/>
    <path class="cls-2" d="M311.35,96.88v.44c-.6.04-1.1.29-1.5.75-.4.46-.8,1.24-1.2,2.35l-4.3,11.93h-.47l-4.16-11.27-4.04,11.27h-.44l-4.66-12.6c-.26-.69-.49-1.21-.7-1.54-.2-.33-.42-.57-.66-.7-.23-.13-.65-.2-1.24-.2v-.44h5.66v.44c-.9.1-1.35.43-1.35.99,0,.23.07.51.2.86l3.58,9.7,3.24-8.88-.34-.99c-.22-.62-.48-1.05-.79-1.3s-.76-.38-1.34-.38v-.44h5.58v.44c-.99,0-1.48.3-1.48.91,0,.25.07.57.21.96l3.57,9.67,3.13-8.55c.25-.69.38-1.25.38-1.69,0-.89-.51-1.33-1.53-1.33v-.42h4.63Z"/>
    <path class="cls-2" d="M320.77,96.88v.44c-.65,0-1.1.18-1.35.54-.25.36-.38.99-.38,1.9v9.52c0,.91.12,1.54.38,1.9.25.35.7.53,1.35.53v.44h-5.49v-.44c.67,0,1.12-.17,1.37-.52.24-.35.36-.98.36-1.9v-9.52c0-.94-.12-1.58-.36-1.92-.24-.34-.7-.52-1.37-.52v-.44h5.49Z"/>
    <path class="cls-2" d="M325.7,106.95h5.22v1h-5.22v-1Z"/>
    <path class="cls-2" d="M343.88,104.77h-4.03v4.51c0,.91.12,1.55.38,1.9.25.35.71.53,1.37.53v.44h-5.49v-.44c.66,0,1.11-.18,1.36-.53.25-.35.37-.98.37-1.9v-9.52c0-.92-.12-1.56-.36-1.91s-.7-.53-1.37-.53v-.44h10.48v2.71h-.35c-.17-.81-.38-1.34-.65-1.59-.27-.25-.88-.38-1.83-.38h-3.89v6.39h3.98c.54,0,.94-.14,1.2-.41.26-.27.43-.74.51-1.4h.42v4.29h-.42c-.05-1.15-.6-1.73-1.65-1.73Z"/>
    <path class="cls-2" d="M356.24,96.88v.44c-.65,0-1.1.18-1.35.54-.25.36-.38.99-.38,1.9v9.52c0,.91.12,1.54.38,1.9.25.35.7.53,1.35.53v.44h-5.49v-.44c.67,0,1.12-.17,1.37-.52.24-.35.36-.98.36-1.9v-9.52c0-.94-.12-1.58-.36-1.92-.24-.34-.7-.52-1.37-.52v-.44h5.49Z"/>
  </g>
</svg>